<svg preserveAspectRatio="none" overflow="visible" style="display: block;" width="928.212" height="560.548" viewBox="0 0 928.212 560.548" fill="none" xmlns="http://www.w3.org/2000/svg">
<path id="&#209;&#128;&#209;&#131;&#208;&#186;&#208;&#176;_&#208;&#189;&#208;&#184;&#208;&#183;" d="M20.3742 153.325C6.08404 147.34 0.484614 133.575 0.0179973 120.955C-0.474866 107.672 9.2293 97.0434 20.0183 89.2815C102.127 30.2121 190.565 10.2561 288.423 0.81372C311.098 -1.37413 334.152 0.635963 355.149 9.46274C437.58 44.1157 527.681 118.616 586.562 161.248C706.191 169.327 813.119 183.589 928.212 187.759L828.211 560.548C796.504 511.655 540.673 376.719 501.827 382.198C443.69 390.402 357.468 397.401 315.56 350.041C274.906 371.027 163.224 373.25 185.228 297.737C151.923 291.354 134.702 266.306 148.424 230.31C121.885 211.617 123.751 171.092 148.54 161.248C121.214 164.134 81.0561 160.102 64.2944 155.894C58.9589 157.798 35.9037 159.828 20.3742 153.325Z" fill="#E9F0FF"/>
</svg>
